<?xml version="1.0" encoding="UTF-8" standalone="no"?>
<!DOCTYPE svg PUBLIC "-//W3C//DTD SVG 1.1//EN"
 "http://www.w3.org/Graphics/SVG/1.1/DTD/svg11.dtd">
<!-- Generated by graphviz version 2.43.20190912.0211 (20190912.0211)
 -->
<!-- Title: ai_skill_flow Pages: 1 -->
<svg width="2019pt" height="713pt"
 viewBox="0.00 0.00 2018.90 713.40" xmlns="http://www.w3.org/2000/svg" xmlns:xlink="http://www.w3.org/1999/xlink">
<g id="graph0" class="graph" transform="scale(1 1) rotate(0) translate(25.2 688.2)">
<title>ai_skill_flow</title>
<polygon fill="#f7f7ff" stroke="transparent" points="-25.2,25.2 -25.2,-688.2 1993.7,-688.2 1993.7,25.2 -25.2,25.2"/>
<text text-anchor="middle" x="984.25" y="-637.4" font-family="Noto Sans CJK SC" font-size="27.00" fill="#172c4a">AI 赋能的 RISC&#45;V Directed Stream 自动生成流程</text>
<text text-anchor="middle" x="984.25" y="-607.4" font-family="Noto Sans CJK SC" font-size="27.00" fill="#172c4a">LLM 将顶层验证意图转化为可执行、可验证、可汇报的 pygen pattern</text>
<g id="clust1" class="cluster">
<title>cluster_ai</title>
<path fill="#edebff" stroke="#6f63d8" stroke-width="2.3" d="M27,-370C27,-370 1234,-370 1234,-370 1240,-370 1246,-376 1246,-382 1246,-382 1246,-473 1246,-473 1246,-479 1240,-485 1234,-485 1234,-485 27,-485 27,-485 21,-485 15,-479 15,-473 15,-473 15,-382 15,-382 15,-376 21,-370 27,-370"/>
<text text-anchor="middle" x="630.5" y="-465" font-family="Noto Sans CJK SC" font-size="20.00" fill="#4d3db1">AI 赋能层：理解、决策、生成、验证、修复</text>
</g>
<g id="clust3" class="cluster">
<title>cluster_delivery</title>
<path fill="#f7fafe" stroke="#b9c9df" d="M1019,-131C1019,-131 1733,-131 1733,-131 1739,-131 1745,-137 1745,-143 1745,-143 1745,-325 1745,-325 1745,-331 1739,-337 1733,-337 1733,-337 1019,-337 1019,-337 1013,-337 1007,-331 1007,-325 1007,-325 1007,-143 1007,-143 1007,-137 1013,-131 1019,-131"/>
<text text-anchor="middle" x="1376" y="-318.6" font-family="Noto Sans CJK SC" font-size="18.00" fill="#35577d">AI 驱动的可追溯交付链</text>
</g>
<!-- intent -->
<g id="node1" class="node">
<title>intent</title>
<path fill="#f1ecff" stroke="#7960d7" stroke-width="2.2" d="M240,-595C240,-595 12,-595 12,-595 6,-595 0,-589 0,-583 0,-583 0,-538 0,-538 0,-532 6,-526 12,-526 12,-526 240,-526 240,-526 246,-526 252,-532 252,-538 252,-538 252,-583 252,-583 252,-589 246,-595 240,-595"/>
<text text-anchor="middle" x="126" y="-574" font-family="Noto Sans CJK SC" font-size="15.00" fill="#172c4a">人的顶层验证意图</text>
<text text-anchor="middle" x="126" y="-557" font-family="Noto Sans CJK SC" font-size="15.00" fill="#172c4a">‘构造一个装满 BPU 的 pattern’</text>
<text text-anchor="middle" x="126" y="-540" font-family="Noto Sans CJK SC" font-size="15.00" fill="#172c4a">Target / seed / 可选参数</text>
</g>
<!-- understand -->
<g id="node2" class="node">
<title>understand</title>
<path fill="#f8f6ff" stroke="#806be0" stroke-width="1.7" d="M217,-447C217,-447 35,-447 35,-447 29,-447 23,-441 23,-435 23,-435 23,-390 23,-390 23,-384 29,-378 35,-378 35,-378 217,-378 217,-378 223,-378 229,-384 229,-390 229,-390 229,-435 229,-435 229,-441 223,-447 217,-447"/>
<text text-anchor="middle" x="126" y="-426" font-family="Noto Sans CJK SC" font-size="15.00" fill="#172c4a">① 意图理解</text>
<text text-anchor="middle" x="126" y="-409" font-family="Noto Sans CJK SC" font-size="15.00" fill="#172c4a">识别 BPU / RAW / 访存场景</text>
<text text-anchor="middle" x="126" y="-392" font-family="Noto Sans CJK SC" font-size="15.00" fill="#172c4a">保留用户原始描述</text>
</g>
<!-- intent&#45;&gt;understand -->
<g id="edge5" class="edge">
<title>intent&#45;&gt;understand</title>
<path fill="none" stroke="#6847d9" stroke-width="2.8" d="M126,-525.64C126,-504.72 126,-477.72 126,-455.46"/>
<polygon fill="#6847d9" stroke="#6847d9" stroke-width="2.8" points="128.8,-455.18 126,-447.18 123.2,-455.18 128.8,-455.18"/>
<text text-anchor="middle" x="162.5" y="-496.4" font-family="Noto Sans CJK SC" font-size="12.00" fill="#526783">自然语言入口</text>
</g>
<!-- elaborate -->
<g id="node3" class="node">
<title>elaborate</title>
<path fill="#f3f4ff" stroke="#6b78db" stroke-width="1.7" d="M491,-447C491,-447 285,-447 285,-447 279,-447 273,-441 273,-435 273,-435 273,-390 273,-390 273,-384 279,-378 285,-378 285,-378 491,-378 491,-378 497,-378 503,-384 503,-390 503,-390 503,-435 503,-435 503,-441 497,-447 491,-447"/>
<text text-anchor="middle" x="388" y="-426" font-family="Noto Sans CJK SC" font-size="15.00" fill="#172c4a">② 需求展开</text>
<text text-anchor="middle" x="388" y="-409" font-family="Noto Sans CJK SC" font-size="15.00" fill="#172c4a">补齐约束与验收规则</text>
<text text-anchor="middle" x="388" y="-392" font-family="Noto Sans CJK SC" font-size="15.00" fill="#172c4a">assumption / deferred / claim</text>
</g>
<!-- understand&#45;&gt;elaborate -->
<g id="edge1" class="edge">
<title>understand&#45;&gt;elaborate</title>
<path fill="none" stroke="#5067a8" stroke-width="2.2" d="M229.11,-412.5C240.96,-412.5 252.81,-412.5 264.66,-412.5"/>
<polygon fill="#5067a8" stroke="#5067a8" stroke-width="2.2" points="264.87,-415.3 272.87,-412.5 264.87,-409.7 264.87,-415.3"/>
</g>
<!-- design -->
<g id="node4" class="node">
<title>design</title>
<path fill="#eef6ff" stroke="#4f8bd8" stroke-width="1.7" d="M727,-447C727,-447 559,-447 559,-447 553,-447 547,-441 547,-435 547,-435 547,-390 547,-390 547,-384 553,-378 559,-378 559,-378 727,-378 727,-378 733,-378 739,-384 739,-390 739,-390 739,-435 739,-435 739,-441 733,-447 727,-447"/>
<text text-anchor="middle" x="643" y="-426" font-family="Noto Sans CJK SC" font-size="15.00" fill="#172c4a">③ 设计决策</text>
<text text-anchor="middle" x="643" y="-409" font-family="Noto Sans CJK SC" font-size="15.00" fill="#172c4a">选择已有父类或生成父类</text>
<text text-anchor="middle" x="643" y="-392" font-family="Noto Sans CJK SC" font-size="15.00" fill="#172c4a">输出可校验 design.yaml</text>
</g>
<!-- elaborate&#45;&gt;design -->
<g id="edge2" class="edge">
<title>elaborate&#45;&gt;design</title>
<path fill="none" stroke="#5067a8" stroke-width="2.2" d="M503.05,-412.5C514.89,-412.5 526.74,-412.5 538.58,-412.5"/>
<polygon fill="#5067a8" stroke="#5067a8" stroke-width="2.2" points="538.78,-415.3 546.78,-412.5 538.78,-409.7 538.78,-415.3"/>
</g>
<!-- code -->
<g id="node5" class="node">
<title>code</title>
<path fill="#eaf9fa" stroke="#36a3b5" stroke-width="1.7" d="M945,-447C945,-447 795,-447 795,-447 789,-447 783,-441 783,-435 783,-435 783,-390 783,-390 783,-384 789,-378 795,-378 795,-378 945,-378 945,-378 951,-378 957,-384 957,-390 957,-390 957,-435 957,-435 957,-441 951,-447 945,-447"/>
<text text-anchor="middle" x="870" y="-426" font-family="Noto Sans CJK SC" font-size="15.00" fill="#172c4a">④ 代码与集成生成</text>
<text text-anchor="middle" x="870" y="-409" font-family="Noto Sans CJK SC" font-size="15.00" fill="#172c4a">Python stream + 参数</text>
<text text-anchor="middle" x="870" y="-392" font-family="Noto Sans CJK SC" font-size="15.00" fill="#172c4a">factory + testlist</text>
</g>
<!-- design&#45;&gt;code -->
<g id="edge3" class="edge">
<title>design&#45;&gt;code</title>
<path fill="none" stroke="#5067a8" stroke-width="2.2" d="M739.21,-412.5C751.04,-412.5 762.87,-412.5 774.7,-412.5"/>
<polygon fill="#5067a8" stroke="#5067a8" stroke-width="2.2" points="774.89,-415.3 782.89,-412.5 774.89,-409.7 774.89,-415.3"/>
</g>
<!-- verify -->
<g id="node6" class="node">
<title>verify</title>
<path fill="#e9faf4" stroke="#25a17c" stroke-width="1.7" d="M1225.5,-447C1225.5,-447 1012.5,-447 1012.5,-447 1006.5,-447 1000.5,-441 1000.5,-435 1000.5,-435 1000.5,-390 1000.5,-390 1000.5,-384 1006.5,-378 1012.5,-378 1012.5,-378 1225.5,-378 1225.5,-378 1231.5,-378 1237.5,-384 1237.5,-390 1237.5,-390 1237.5,-435 1237.5,-435 1237.5,-441 1231.5,-447 1225.5,-447"/>
<text text-anchor="middle" x="1119" y="-426" font-family="Noto Sans CJK SC" font-size="15.00" fill="#172c4a">⑤ 自动验证与修复</text>
<text text-anchor="middle" x="1119" y="-409" font-family="Noto Sans CJK SC" font-size="15.00" fill="#172c4a">逐层执行、失败分类、最小修复</text>
<text text-anchor="middle" x="1119" y="-392" font-family="Noto Sans CJK SC" font-size="15.00" fill="#172c4a">检查真实汇编并生成报告</text>
</g>
<!-- code&#45;&gt;verify -->
<g id="edge4" class="edge">
<title>code&#45;&gt;verify</title>
<path fill="none" stroke="#5067a8" stroke-width="2.2" d="M957.05,-412.5C968.79,-412.5 980.53,-412.5 992.26,-412.5"/>
<polygon fill="#5067a8" stroke="#5067a8" stroke-width="2.2" points="992.39,-415.3 1000.39,-412.5 992.39,-409.7 992.39,-415.3"/>
</g>
<!-- req -->
<g id="node7" class="node">
<title>req</title>
<path fill="white" stroke="#9cb1d2" stroke-width="1.7" d="M1211,-301C1211,-301 1027,-301 1027,-301 1021,-301 1015,-295 1015,-289 1015,-289 1015,-244 1015,-244 1015,-238 1021,-232 1027,-232 1027,-232 1211,-232 1211,-232 1217,-232 1223,-238 1223,-244 1223,-244 1223,-289 1223,-289 1223,-295 1217,-301 1211,-301"/>
<text text-anchor="middle" x="1119" y="-280" font-family="Noto Sans CJK SC" font-size="15.00" fill="#172c4a">requirement.yaml</text>
<text text-anchor="middle" x="1119" y="-263" font-family="Noto Sans CJK SC" font-size="15.00" fill="#172c4a">architecture_independent</text>
<text text-anchor="middle" x="1119" y="-246" font-family="Noto Sans CJK SC" font-size="15.00" fill="#172c4a">ready / deferred</text>
</g>
<!-- verify&#45;&gt;req -->
<g id="edge11" class="edge">
<title>verify&#45;&gt;req</title>
<path fill="none" stroke="#278e83" stroke-width="2.8" d="M1119,-377.74C1119,-357.25 1119,-330.93 1119,-309.15"/>
<polygon fill="#278e83" stroke="#278e83" stroke-width="2.8" points="1121.8,-309.05 1119,-301.05 1116.2,-309.05 1121.8,-309.05"/>
<text text-anchor="middle" x="1173.5" y="-348.4" font-family="Noto Sans CJK SC" font-size="12.00" fill="#526783">生成资产 + 自动证据</text>
</g>
<!-- des -->
<g id="node8" class="node">
<title>des</title>
<path fill="white" stroke="#9cb1d2" stroke-width="1.7" d="M1453.5,-292.5C1453.5,-292.5 1278.5,-292.5 1278.5,-292.5 1272.5,-292.5 1266.5,-286.5 1266.5,-280.5 1266.5,-280.5 1266.5,-252.5 1266.5,-252.5 1266.5,-246.5 1272.5,-240.5 1278.5,-240.5 1278.5,-240.5 1453.5,-240.5 1453.5,-240.5 1459.5,-240.5 1465.5,-246.5 1465.5,-252.5 1465.5,-252.5 1465.5,-280.5 1465.5,-280.5 1465.5,-286.5 1459.5,-292.5 1453.5,-292.5"/>
<text text-anchor="middle" x="1366" y="-271.5" font-family="Noto Sans CJK SC" font-size="15.00" fill="#172c4a">design.yaml</text>
<text text-anchor="middle" x="1366" y="-254.5" font-family="Noto Sans CJK SC" font-size="15.00" fill="#172c4a">继承图 / 职责 / entry class</text>
</g>
<!-- req&#45;&gt;des -->
<g id="edge6" class="edge">
<title>req&#45;&gt;des</title>
<path fill="none" stroke="#5067a8" stroke-width="2.2" d="M1223.2,-266.5C1234.91,-266.5 1246.62,-266.5 1258.33,-266.5"/>
<polygon fill="#5067a8" stroke="#5067a8" stroke-width="2.2" points="1258.43,-269.3 1266.43,-266.5 1258.43,-263.7 1258.43,-269.3"/>
</g>
<!-- stream -->
<g id="node9" class="node">
<title>stream</title>
<path fill="white" stroke="#9cb1d2" stroke-width="1.7" d="M1725,-292.5C1725,-292.5 1521,-292.5 1521,-292.5 1515,-292.5 1509,-286.5 1509,-280.5 1509,-280.5 1509,-252.5 1509,-252.5 1509,-246.5 1515,-240.5 1521,-240.5 1521,-240.5 1725,-240.5 1725,-240.5 1731,-240.5 1737,-246.5 1737,-252.5 1737,-252.5 1737,-280.5 1737,-280.5 1737,-286.5 1731,-292.5 1725,-292.5"/>
<text text-anchor="middle" x="1623" y="-271.5" font-family="Noto Sans CJK SC" font-size="15.00" fill="#172c4a">Python Stream</text>
<text text-anchor="middle" x="1623" y="-254.5" font-family="Noto Sans CJK SC" font-size="15.00" fill="#172c4a">参数化、安全的控制/数据关系</text>
</g>
<!-- des&#45;&gt;stream -->
<g id="edge7" class="edge">
<title>des&#45;&gt;stream</title>
<path fill="none" stroke="#5067a8" stroke-width="2.2" d="M1465.64,-266.5C1477.37,-266.5 1489.11,-266.5 1500.85,-266.5"/>
<polygon fill="#5067a8" stroke="#5067a8" stroke-width="2.2" points="1500.97,-269.3 1508.97,-266.5 1500.97,-263.7 1500.97,-269.3"/>
</g>
<!-- integrate -->
<g id="node10" class="node">
<title>integrate</title>
<path fill="white" stroke="#9cb1d2" stroke-width="1.7" d="M1298.5,-191C1298.5,-191 1107.5,-191 1107.5,-191 1101.5,-191 1095.5,-185 1095.5,-179 1095.5,-179 1095.5,-151 1095.5,-151 1095.5,-145 1101.5,-139 1107.5,-139 1107.5,-139 1298.5,-139 1298.5,-139 1304.5,-139 1310.5,-145 1310.5,-151 1310.5,-151 1310.5,-179 1310.5,-179 1310.5,-185 1304.5,-191 1298.5,-191"/>
<text text-anchor="middle" x="1203" y="-170" font-family="Noto Sans CJK SC" font-size="15.00" fill="#172c4a">pygen 集成</text>
<text text-anchor="middle" x="1203" y="-153" font-family="Noto Sans CJK SC" font-size="15.00" fill="#172c4a">factory / testlist / fixed seed</text>
</g>
<!-- stream&#45;&gt;integrate -->
<g id="edge8" class="edge">
<title>stream&#45;&gt;integrate</title>
<path fill="none" stroke="#5067a8" stroke-width="2.2" d="M1517.29,-240.46C1456.12,-225.96 1379.12,-207.72 1316.65,-192.92"/>
<polygon fill="#5067a8" stroke="#5067a8" stroke-width="2.2" points="1317.15,-190.16 1308.72,-191.05 1315.86,-195.61 1317.15,-190.16"/>
</g>
<!-- assembly -->
<g id="node11" class="node">
<title>assembly</title>
<path fill="white" stroke="#9cb1d2" stroke-width="1.7" d="M1483.5,-191C1483.5,-191 1366.5,-191 1366.5,-191 1360.5,-191 1354.5,-185 1354.5,-179 1354.5,-179 1354.5,-151 1354.5,-151 1354.5,-145 1360.5,-139 1366.5,-139 1366.5,-139 1483.5,-139 1483.5,-139 1489.5,-139 1495.5,-145 1495.5,-151 1495.5,-151 1495.5,-179 1495.5,-179 1495.5,-185 1489.5,-191 1483.5,-191"/>
<text text-anchor="middle" x="1425" y="-170" font-family="Noto Sans CJK SC" font-size="15.00" fill="#172c4a">最终汇编 .S</text>
<text text-anchor="middle" x="1425" y="-153" font-family="Noto Sans CJK SC" font-size="15.00" fill="#172c4a">Pattern 真实落地</text>
</g>
<!-- integrate&#45;&gt;assembly -->
<g id="edge9" class="edge">
<title>integrate&#45;&gt;assembly</title>
<path fill="none" stroke="#5067a8" stroke-width="2.2" d="M1310.53,-165C1322.4,-165 1334.27,-165 1346.14,-165"/>
<polygon fill="#5067a8" stroke="#5067a8" stroke-width="2.2" points="1346.35,-167.8 1354.35,-165 1346.35,-162.2 1346.35,-167.8"/>
</g>
<!-- report -->
<g id="node12" class="node">
<title>report</title>
<path fill="#ecf9f4" stroke="#55a68a" stroke-width="1.7" d="M1725,-191C1725,-191 1551,-191 1551,-191 1545,-191 1539,-185 1539,-179 1539,-179 1539,-151 1539,-151 1539,-145 1545,-139 1551,-139 1551,-139 1725,-139 1725,-139 1731,-139 1737,-145 1737,-151 1737,-151 1737,-179 1737,-179 1737,-185 1731,-191 1725,-191"/>
<text text-anchor="middle" x="1638" y="-170" font-family="Noto Sans CJK SC" font-size="15.00" fill="#172c4a">证据报告</text>
<text text-anchor="middle" x="1638" y="-153" font-family="Noto Sans CJK SC" font-size="15.00" fill="#172c4a">PASS / FAIL / claim scope</text>
</g>
<!-- assembly&#45;&gt;report -->
<g id="edge10" class="edge">
<title>assembly&#45;&gt;report</title>
<path fill="none" stroke="#5067a8" stroke-width="2.2" d="M1495.72,-165C1507.39,-165 1519.05,-165 1530.72,-165"/>
<polygon fill="#5067a8" stroke="#5067a8" stroke-width="2.2" points="1530.79,-167.8 1538.79,-165 1530.79,-162.2 1530.79,-167.8"/>
</g>
<!-- gain -->
<g id="node13" class="node">
<title>gain</title>
<path fill="#e8f3ff" stroke="#6ca1d6" stroke-width="2" d="M1641.5,-77.5C1641.5,-77.5 1266.5,-77.5 1266.5,-77.5 1260.5,-77.5 1254.5,-71.5 1254.5,-65.5 1254.5,-65.5 1254.5,-20.5 1254.5,-20.5 1254.5,-14.5 1260.5,-8.5 1266.5,-8.5 1266.5,-8.5 1641.5,-8.5 1641.5,-8.5 1647.5,-8.5 1653.5,-14.5 1653.5,-20.5 1653.5,-20.5 1653.5,-65.5 1653.5,-65.5 1653.5,-71.5 1647.5,-77.5 1641.5,-77.5"/>
<text text-anchor="middle" x="1454" y="-56.5" font-family="Noto Sans CJK SC" font-size="15.00" fill="#172c4a">AI 对 DV 的核心增益</text>
<text text-anchor="middle" x="1454" y="-39.5" font-family="Noto Sans CJK SC" font-size="15.00" fill="#172c4a">自然语言入口 · 验证知识结构化 · 生成器代码自动构建</text>
<text text-anchor="middle" x="1454" y="-22.5" font-family="Noto Sans CJK SC" font-size="15.00" fill="#172c4a">工具链自动接入 · 失败定位与修复 · 证据化汇报</text>
</g>
<!-- report&#45;&gt;gain -->
<g id="edge12" class="edge">
<title>report&#45;&gt;gain</title>
<path fill="none" stroke="#5067a8" stroke-width="2.2" d="M1599.43,-138.84C1574.16,-122.37 1540.66,-100.52 1512.19,-81.95"/>
<polygon fill="#5067a8" stroke="#5067a8" stroke-width="2.2" points="1513.67,-79.57 1505.44,-77.55 1510.61,-84.26 1513.67,-79.57"/>
</g>
<!-- future -->
<g id="node14" class="node">
<title>future</title>
<path fill="#f3efff" stroke="#9b84dc" stroke-width="1.7" stroke-dasharray="5,2" d="M1956.5,-86C1956.5,-86 1687.5,-86 1687.5,-86 1681.5,-86 1675.5,-80 1675.5,-74 1675.5,-74 1675.5,-12 1675.5,-12 1675.5,-6 1681.5,0 1687.5,0 1687.5,0 1956.5,0 1956.5,0 1962.5,0 1968.5,-6 1968.5,-12 1968.5,-12 1968.5,-74 1968.5,-74 1968.5,-80 1962.5,-86 1956.5,-86"/>
<text text-anchor="middle" x="1822" y="-65" font-family="Noto Sans CJK SC" font-size="15.00" fill="#172c4a">未来：DUT&#45;aware AI</text>
<text text-anchor="middle" x="1822" y="-48" font-family="Noto Sans CJK SC" font-size="15.00" fill="#172c4a">分析 RTL / 设计文档</text>
<text text-anchor="middle" x="1822" y="-31" font-family="Noto Sans CJK SC" font-size="15.00" fill="#172c4a">容量、索引、替换与更新策略</text>
<text text-anchor="middle" x="1822" y="-14" font-family="Noto Sans CJK SC" font-size="15.00" fill="#172c4a">当前 deferred，不阻塞架构无关 pattern</text>
</g>
<!-- report&#45;&gt;future -->
<g id="edge13" class="edge">
<title>report&#45;&gt;future</title>
<path fill="none" stroke="#5067a8" stroke-width="2.2" stroke-dasharray="5,2" d="M1676.57,-138.84C1698.05,-124.84 1725.47,-106.96 1750.7,-90.5"/>
<polygon fill="#5067a8" stroke="#5067a8" stroke-width="2.2" points="1752.23,-92.85 1757.4,-86.13 1749.17,-88.15 1752.23,-92.85"/>
<text text-anchor="middle" x="1748.5" y="-109.4" font-family="Noto Sans CJK SC" font-size="12.00" fill="#526783">能力扩展</text>
</g>
</g>
</svg>
